# xmcd
#
# Track frame offsets:
#	150
#	21805
#	33698
#	55310
#	95702
#	116805
#	131036
#	148663
#	162983
#	197654
#
# Disc length: 2746
#
# Revision: 1
# Processed by: cddbd v1.5.1PL0 Copyright (c) Steve Scherf et al.
# Submitted via: CDex 1.50
# Normalized: r0:TDELIM( - )
#
DISCID=950ab80a
DTITLE=Various Artist - Essential Blues Grooves Volume 1
DYEAR=2001
DGENRE=Blues
TTITLE0=Joe Williams - Going to Chicago
TTITLE1=Joe Williams - Early in the Morning
TTITLE2=Ray Charles - Georgia On My Mind
TTITLE3=Muddy Waters - Kansas City
TTITLE4=Muddy Waters - Luther's Blues
TTITLE5=Muddy Waters - I've Got My Mojo Working
TTITLE6=T-Bone Walker and Muddy Waters - Come Baby
TTITLE7=Joe Turner - Flip, Flop, and Fly
TTITLE8=Memphis Slim - Medly:Nervous - Summertime
TTITLE9=Memphis Slim - Baby Please Come Home
EXTD=YEAR: 2001
EXTT0=
EXTT1=
EXTT2=
EXTT3=
EXTT4=
EXTT5=
EXTT6=
EXTT7=
EXTT8=
EXTT9=
PLAYORDER=
